#!OML:ASF E:\motion texture\Top Level 1\Subject 1\Session 1\male.ASF
:FULLY-SPECIFIED
:DEGREES
781
root -43.2434 17.8542 2.76198 1390.71 -103.142 -1388.17
lowerback -0.773922 3.68797 9.01693
upperback -1.60023 4.81616 3.31225
thorax -0.769645 2.27796 -1.57428
lowerneck -18.1277 -5.67365 -7.10196
upperneck 13.2018 -7.04638 6.61458
head 7.52191 -3.13041 2.48649
rclavicle 4.91992e-015 -2.90226e-014
rhumerus 7.85506 17.5871 -74.4843
rradius 85.3586
rwrist -9.11495
rhand -17.5403 -13.1635
rfingers 7.12502
rthumb 8.71397 -42.9637
lclavicle 4.91992e-015 -2.90226e-014
lhumerus -63.3278 -10.0118 82.3865
lradius 51.2921
lwrist 2.56605
lhand -14.5045 5.31955
lfingers 7.12502
lthumb 11.6427 34.9761
rfemur 7.74289 6.84172 37.1765
rtibia 20.5651
rfoot 885.422 -183.113
rtoes 2.30623
lfemur -69.2415 11.2899 -9.93091
ltibia 77.3534
lfoot 917.314 176.145
ltoes -5.49934
782
root -43.4096 17.8237 2.76654 1391.7 -103.131 -1388.9
lowerback -1.22399 3.71155 8.96207
upperback -1.69758 4.79865 3.24772
thorax -0.618657 2.27257 -1.58377
lowerneck -18.051 -5.63005 -7.06862
upperneck 13.2826 -7.00369 6.59934
head 7.53067 -3.11123 2.48285
rclavicle -3.07526e-014 5.04913e-014
rhumerus 6.37743 17.9488 -75.1078
rradius 85.0031
rwrist -8.97939
rhand -17.4489 -13.2101
rfingers 7.12502
rthumb 8.80213 -43.0065
lclavicle -3.07526e-014 5.04913e-014
lhumerus -62.5238 -9.98569 82.685
lradius 51.1188
lwrist 2.55279
lhand -14.6277 5.3077
lfingers 7.12502
lthumb 11.5238 34.9709
rfemur 8.0712 6.91765 36.9569
rtibia 20.5693
rfoot 885.177 -183.017
rtoes 1.79084
lfemur -66.6861 11.326 -9.75692
ltibia 74.1556
lfoot 918.202 176.697
ltoes -4.96065
783
root -43.5803 17.7917 2.77209 1392.88 -103.134 -1389.83
lowerback -1.67479 3.74302 8.89102
upperback -1.79957 4.79252 3.18121
thorax -0.47227 2.27253 -1.58638
lowerneck -17.9588 -5.57989 -7.03661
upperneck 13.3635 -6.9525 6.58259
head 7.53619 -3.08858 2.48029
rclavicle -5.41378e-015 -3.8763e-015
rhumerus 4.79311 18.323 -75.7805
rradius 84.6367
rwrist -8.87156
rhand -17.3616 -13.2584
rfingers 7.12502
rthumb 8.88643 -43.0513
lclavicle -5.41378e-015 -3.8763e-015
lhumerus -61.7079 -9.93094 83.002
lradius 50.9435
lwrist 2.53672
lhand -14.7533 5.31843
lfingers 7.12502
lthumb 11.4026 34.9884
rfemur 8.40121 6.98318 36.6857
rtibia 20.634
rfoot 884.944 -182.857
rtoes 1.22163
lfemur -63.9957 11.3552 -9.5935
ltibia 70.9244
lfoot 918.919 177.468
ltoes -4.36963
784
root -43.7565 17.7582 2.77872 1394.22 -103.153 -1390.95
lowerback -2.12477 3.77928 8.80894
upperback -1.91101 4.79418 3.11263
thorax -0.336267 2.2756 -1.58525
lowerneck -17.8508 -5.52061 -6.99675
upperneck 13.4565 -6.89107 6.55653
head 7.54166 -3.06183 2.47493
rclavicle 1.32782e-014 -2.70347e-014
rhumerus 3.09006 18.7021 -76.5132
rradius 84.2619
rwrist -8.79285
rhand -17.2669 -13.3085
rfingers 7.12502
rthumb 8.97782 -43.0974
lclavicle 1.32782e-014 -2.70347e-014
lhumerus -60.8954 -9.84166 83.3329
lradius 50.7727
lwrist 2.51538
lhand -14.8621 5.36531
lfingers 7.12502
lthumb 11.2978 35.041
rfemur 8.73178 7.03166 36.3629
rtibia 20.7696
rfoot 884.734 -182.622
rtoes 0.608045
lfemur -61.1755 11.3533 -9.43044
ltibia 67.6707
lfoot 919.467 178.224
ltoes -3.86943
785
root -43.9378 17.7232 2.7864 1395.67 -103.191 -1392.2
lowerback -2.58012 3.81942 8.72609
upperback -2.02592 4.80104 3.04269
thorax -0.200499 2.28088 -1.58455
lowerneck -17.7229 -5.45264 -6.96374
upperneck 13.5471 -6.82026 6.54636
head 7.54316 -3.03003 2.47745
rclavicle -1.82385e-014 -4.59193e-014
rhumerus 1.2831 19.0742 -77.302
rradius 83.8716
rwrist -8.72718
rhand -17.166 -13.3652
rfingers 7.12502
rthumb 9.07518 -43.15
lclavicle -1.82385e-014 -4.59193e-014
lhumerus -60.0762 -9.71656 83.6775
lradius 50.6088
lwrist 2.49656
lhand -14.9462 5.45082
lfingers 7.12502
lthumb 11.2166 35.131
rfemur 9.0457 7.06476 35.9961
rtibia 21.0008
rfoot 884.554 -182.311
rtoes -0.0703263
lfemur -58.2371 11.2928 -9.25267
ltibia 64.4063
lfoot 919.678 178.794
ltoes -4.11206
786
root -44.1248 17.6866 2.79533 1397.21 -103.24 -1393.56
lowerback -3.04433 3.8598 8.64011
upperback -2.14781 4.8082 2.96899
thorax -0.0671262 2.28575 -1.5855
lowerneck -17.5766 -5.37552 -6.91758
upperneck 13.6504 -6.74117 6.52922
head 7.54435 -2.99465 2.47685
rclavicle 1.26135e-014 -3.27995e-015
rhumerus -0.637425 19.4287 -78.152
rradius 83.462
rwrist -8.66051
rhand -17.0527 -13.4223
rfingers 7.12502
rthumb 9.18446 -43.2023
lclavicle 1.26135e-014 -3.27995e-015
lhumerus -59.2633 -9.55348 84.0341
lradius 50.4639
lwrist 2.48979
lhand -14.9939 5.59654
lfingers 7.12502
lthumb 11.1706 35.2792
rfemur 9.3353 7.07568 35.5759
rtibia 21.3419
rfoot 884.413 -181.916
rtoes -0.821339
lfemur -55.1992 11.1486 -9.07517
ltibia 61.1846
lfoot 919.298 179.064
ltoes -4.99881
787
root -44.3173 17.6485 2.80582 1398.76 -103.296 -1394.95
lowerback -3.52564 3.89617 8.561
upperback -2.27617 4.80846 2.89429
thorax 0.0688369 2.28664 -1.59053
lowerneck -17.4207 -5.29023 -6.86636
upperneck 13.7679 -6.65429 6.51473
head 7.54795 -2.95528 2.47737
rclavicle 4.1341e-014 4.26393e-014
rhumerus -2.65715 19.765 -79.0461
rradius 83.0285
rwrist -8.57646
rhand -16.9442 -13.481
rfingers 7.12502
rthumb 9.28919 -43.2564
lclavicle 4.1341e-014 4.26393e-014
lhumerus -58.4485 -9.35313 84.4083
lradius 50.3361
lwrist 2.50244
lhand -15.0105 5.78698
lfingers 7.12502
lthumb 11.1546 35.4705
rfemur 9.57367 7.04961 35.1042
rtibia 21.8178
rfoot 884.323 -181.43
rtoes -1.64307
lfemur -52.1164 10.9072 -8.91775
ltibia 58.0915
lfoot 918.133 178.958
ltoes -6.45941
788
root -44.5155 17.6091 2.81801 1400.34 -103.355 -1396.39
lowerback -4.0248 3.92915 8.4853
upperback -2.41409 4.80285 2.81621
thorax 0.204579 2.28388 -1.60032
lowerneck -17.2517 -5.19772 -6.80716
upperneck 13.9083 -6.56182 6.49937
head 7.55613 -2.91321 2.47714
rclavicle 1.09207e-014 1.50082e-014
rhumerus -4.78556 20.0702 -79.9842
rradius 82.5686
rwrist -8.45627
rhand -16.8314 -13.5425
rfingers 7.12502
rthumb 9.39807 -43.3129
lclavicle 1.09207e-014 1.50082e-014
lhumerus -57.6406 -9.12611 84.8061
lradius 50.2321
lwrist 2.54614
lhand -15.0046 6.00472
lfingers 7.12502
lthumb 11.1603 35.6879
rfemur 9.74447 6.98504 34.5686
rtibia 22.4558
rfoot 884.31 -180.843
rtoes -2.50836
lfemur -49.0363 10.5741 -8.8153
ltibia 55.1918
lfoot 916.117 178.55
ltoes -8.23725
789
root -44.7177 17.5686 2.83191 1401.92 -103.395 -1397.82
lowerback -4.52503 3.95068 8.4005
upperback -2.5676 4.78355 2.73435
thorax 0.322785 2.273 -1.61063
lowerneck -17.0757 -5.09927 -6.73681
upperneck 14.0767 -6.46552 6.4795
head 7.5715 -2.86929 2.47409
rclavicle 5.31128e-015 1.85864e-014
rhumerus -7.01556 20.3362 -80.9569
rradius 82.0744
rwrist -8.29041
rhand -16.7111 -13.6016
rfingers 7.12502
rthumb 9.5141 -43.3668
lclavicle 5.31128e-015 1.85864e-014
lhumerus -56.842 -8.87586 85.2328
lradius 50.1572
lwrist 2.63191
lhand -15.0068 6.2229
lfingers 7.12502
lthumb 11.1582 35.9062
rfemur 9.80956 6.87104 33.9593
rtibia 23.2974
rfoot 884.399 -180.156
rtoes -3.38573
lfemur -46.0395 10.1568 -8.8119
ltibia 52.5235
lfoot 913.247 178
ltoes -9.88128
790
root -44.9225 17.5278 2.8477 1403.45 -103.388 -1399.22
lowerback -5.01883 3.94869 8.29308
upperback -2.73678 4.7363 2.64654
thorax 0.41706 2.24692 -1.6181
lowerneck -16.9019 -4.99498 -6.64611
upperneck 14.2767 -6.36518 6.44374
head 7.5961 -2.82376 2.46286
rclavicle -1.29831e-014 2.37548e-014
rhumerus -9.33313 20.5674 -81.9519
rradius 81.5436
rwrist -8.07
rhand -16.5887 -13.6497
rfingers 7.12502
rthumb 9.63219 -43.4094
lclavicle -1.29831e-014 2.37548e-014
lhumerus -56.0378 -8.61047 85.6913
lradius 50.1032
lwrist 2.75654
lhand -15.03 6.42678
lfingers 7.12502
lthumb 11.1358 36.1113
rfemur 9.73442 6.67882 33.2567
rtibia 24.3813
rfoot 884.628 -179.361
rtoes -4.27452
lfemur -43.1952 9.67997 -8.95963
ltibia 50.0826
lfoot 909.726 177.51
ltoes -11.0105
